<mxfile host="Electron" modified="2023-12-20T23:40:45.049Z" agent="Mozilla/5.0 (Macintosh; Intel Mac OS X 10_15_7) AppleWebKit/537.36 (KHTML, like Gecko) draw.io/22.1.11 Chrome/114.0.5735.289 Electron/25.9.8 Safari/537.36" etag="NdS63UoyKOqnArgN87sK" version="22.1.11" type="device">
  <diagram name="PÃ¡gina-1" id="O5gog9sPxbkKMFYWGM0b">
    <mxGraphModel dx="2312" dy="1021" grid="1" gridSize="10" guides="1" tooltips="1" connect="1" arrows="1" fold="1" page="1" pageScale="1" pageWidth="827" pageHeight="1169" math="0" shadow="0">
      <root>
        <mxCell id="0" />
        <mxCell id="1" parent="0" />
        <mxCell id="C6dcBLqFLIfcCIMkem4A-1" value="&lt;font style=&quot;font-size: 15px;&quot;&gt;Author&lt;br&gt;&lt;br&gt;Integer&amp;nbsp; id;&lt;br&gt;String name;&lt;br&gt;&lt;br&gt;Ac&lt;br&gt;List&amp;lt;Book&amp;gt;Libros;&lt;br&gt;&lt;br&gt;&lt;br&gt;&lt;br&gt;&lt;/font&gt;" style="whiteSpace=wrap;html=1;aspect=fixed;" vertex="1" parent="1">
          <mxGeometry x="520" y="450" width="291" height="291" as="geometry" />
        </mxCell>
        <mxCell id="C6dcBLqFLIfcCIMkem4A-4" value="&lt;font style=&quot;font-size: 15px;&quot;&gt;Book&lt;br&gt;&lt;br&gt;Integer id;&lt;br&gt;String title;&lt;br&gt;Boolean available;&lt;br&gt;&lt;br&gt;Ac&lt;br&gt;Genre genre;&lt;br&gt;&lt;br&gt;Ac&lt;br&gt;Author author&lt;br&gt;&lt;br&gt;Ac&lt;br&gt;Languaje languaje;&lt;br&gt;&lt;br&gt;List&amp;lt;User&amp;gt; users;&lt;br&gt;&lt;/font&gt;" style="whiteSpace=wrap;html=1;aspect=fixed;" vertex="1" parent="1">
          <mxGeometry x="91" y="450" width="310" height="310" as="geometry" />
        </mxCell>
        <mxCell id="C6dcBLqFLIfcCIMkem4A-5" value="&lt;font style=&quot;font-size: 15px;&quot;&gt;User&lt;br&gt;&lt;br&gt;UUID id;&lt;br&gt;String title;&lt;br&gt;Boolean available;&lt;br&gt;&lt;br&gt;Ac&lt;br&gt;Genre genre;&lt;br&gt;&lt;br&gt;Ac&lt;br&gt;Author author&lt;br&gt;&lt;br&gt;List&amp;lt;Book&amp;gt; books&lt;br&gt;&lt;br&gt;&lt;br&gt;&lt;/font&gt;" style="whiteSpace=wrap;html=1;aspect=fixed;" vertex="1" parent="1">
          <mxGeometry x="100" y="60" width="291" height="291" as="geometry" />
        </mxCell>
        <mxCell id="C6dcBLqFLIfcCIMkem4A-7" value="&lt;font style=&quot;font-size: 15px;&quot;&gt;Lenguage&lt;br&gt;&lt;br&gt;Integer id;&lt;br&gt;String name;&lt;br&gt;&lt;br&gt;Ac&lt;br&gt;List&amp;lt;Book&amp;gt; books;&lt;br&gt;&lt;br&gt;&lt;br&gt;&lt;br&gt;&lt;br&gt;&lt;br&gt;&lt;/font&gt;" style="whiteSpace=wrap;html=1;aspect=fixed;" vertex="1" parent="1">
          <mxGeometry x="110" y="878" width="291" height="291" as="geometry" />
        </mxCell>
        <mxCell id="C6dcBLqFLIfcCIMkem4A-9" value="&lt;font style=&quot;font-size: 17px;&quot;&gt;Favorite-book&lt;br&gt;&lt;br&gt;User-id&lt;br&gt;Book-Id&lt;br&gt;&lt;/font&gt;" style="shape=hexagon;perimeter=hexagonPerimeter2;whiteSpace=wrap;html=1;fixedSize=1;" vertex="1" parent="1">
          <mxGeometry x="-310" y="320" width="210" height="150" as="geometry" />
        </mxCell>
        <mxCell id="C6dcBLqFLIfcCIMkem4A-10" value="&lt;font style=&quot;font-size: 17px;&quot;&gt;Favorite-author&lt;br&gt;&lt;br&gt;User-id&lt;br&gt;Author-Id&lt;br&gt;&lt;/font&gt;" style="shape=hexagon;perimeter=hexagonPerimeter2;whiteSpace=wrap;html=1;fixedSize=1;" vertex="1" parent="1">
          <mxGeometry x="560.5" y="150" width="210" height="150" as="geometry" />
        </mxCell>
        <mxCell id="C6dcBLqFLIfcCIMkem4A-11" value="" style="shape=flexArrow;endArrow=classic;startArrow=classic;html=1;rounded=0;" edge="1" parent="1">
          <mxGeometry width="100" height="100" relative="1" as="geometry">
            <mxPoint x="-80" y="410" as="sourcePoint" />
            <mxPoint x="90" y="330" as="targetPoint" />
            <Array as="points">
              <mxPoint x="-30" y="390" />
            </Array>
          </mxGeometry>
        </mxCell>
        <mxCell id="C6dcBLqFLIfcCIMkem4A-12" value="" style="shape=flexArrow;endArrow=classic;startArrow=classic;html=1;rounded=0;" edge="1" parent="1">
          <mxGeometry width="100" height="100" relative="1" as="geometry">
            <mxPoint x="-90" y="440" as="sourcePoint" />
            <mxPoint x="90" y="520" as="targetPoint" />
            <Array as="points">
              <mxPoint x="-50" y="460" />
            </Array>
          </mxGeometry>
        </mxCell>
        <mxCell id="C6dcBLqFLIfcCIMkem4A-13" value="" style="shape=flexArrow;endArrow=classic;startArrow=classic;html=1;rounded=0;" edge="1" parent="1">
          <mxGeometry width="100" height="100" relative="1" as="geometry">
            <mxPoint x="400" y="130" as="sourcePoint" />
            <mxPoint x="571" y="165.5" as="targetPoint" />
            <Array as="points" />
          </mxGeometry>
        </mxCell>
        <mxCell id="C6dcBLqFLIfcCIMkem4A-14" value="" style="shape=flexArrow;endArrow=classic;startArrow=classic;html=1;rounded=0;exitX=0.55;exitY=0.984;exitDx=0;exitDy=0;exitPerimeter=0;" edge="1" parent="1" source="C6dcBLqFLIfcCIMkem4A-10">
          <mxGeometry width="100" height="100" relative="1" as="geometry">
            <mxPoint x="670" y="310" as="sourcePoint" />
            <mxPoint x="680" y="440" as="targetPoint" />
            <Array as="points" />
          </mxGeometry>
        </mxCell>
        <mxCell id="C6dcBLqFLIfcCIMkem4A-15" value="" style="shape=flexArrow;endArrow=classic;html=1;rounded=0;" edge="1" parent="1">
          <mxGeometry width="50" height="50" relative="1" as="geometry">
            <mxPoint x="410" y="610" as="sourcePoint" />
            <mxPoint x="510" y="610" as="targetPoint" />
          </mxGeometry>
        </mxCell>
        <mxCell id="C6dcBLqFLIfcCIMkem4A-16" value="" style="shape=flexArrow;endArrow=classic;html=1;rounded=0;" edge="1" parent="1">
          <mxGeometry width="50" height="50" relative="1" as="geometry">
            <mxPoint x="250" y="770" as="sourcePoint" />
            <mxPoint x="254.83" y="870" as="targetPoint" />
          </mxGeometry>
        </mxCell>
        <mxCell id="C6dcBLqFLIfcCIMkem4A-20" value="Actor" style="shape=umlActor;verticalLabelPosition=bottom;verticalAlign=top;html=1;outlineConnect=0;" vertex="1" parent="1">
          <mxGeometry x="340" y="90" width="30" height="60" as="geometry" />
        </mxCell>
      </root>
    </mxGraphModel>
  </diagram>
</mxfile>
